{"glyphs":{"0":{"ha":797,"x_min":0,"x_max":0,"o":"m 438 728 l 438 242 l 358 242 l 358 728 z m 619 0 b 742 121 692 0 742 50 l 742 851 b 619 972 742 922 690 972 l 176 972 b 56 851 106 972 56 922 l 56 121 b 176 0 56 50 106 0 z "},"1":{"ha":415,"x_min":0,"x_max":0,"o":"m 360 0 l 360 972 l 208 972 l 56 913 l 56 0 z "},"2":{"ha":742,"x_min":0,"x_max":0,"o":"m 632 464 b 714 629 703 504 714 551 l 714 851 b 593 972 714 922 664 972 l 28 972 l 28 851 l 76 728 l 411 728 l 411 676 l 110 488 b 28 322 42 446 28 401 l 28 0 l 714 0 l 714 242 l 332 242 l 332 294 z "},"3":{"ha":769,"x_min":0,"x_max":0,"o":"m 714 457 b 590 583 714 536 667 578 l 708 740 l 708 972 l 28 972 l 28 851 l 76 728 l 353 728 l 353 676 l 192 528 l 192 376 l 411 376 l 411 242 l 28 242 l 28 0 l 593 0 b 714 121 664 0 714 50 z "},"4":{"ha":817,"x_min":0,"x_max":0,"o":"m 199 972 l 28 481 l 28 183 l 457 183 l 457 0 l 761 0 l 761 603 l 457 603 l 457 426 l 338 426 l 338 478 l 468 851 l 468 972 z "},"5":{"ha":783,"x_min":0,"x_max":0,"o":"m 56 972 l 56 376 l 439 376 l 439 242 l 56 242 l 56 0 l 621 0 b 742 121 692 0 742 50 l 742 497 b 621 618 742 568 692 618 l 360 618 l 360 728 l 689 728 l 736 851 l 736 972 z "},"6":{"ha":783,"x_min":0,"x_max":0,"o":"m 438 242 l 358 242 l 358 376 l 438 376 z m 619 618 l 358 618 l 358 728 l 682 728 l 729 851 l 729 972 l 176 972 b 56 851 106 972 56 922 l 56 121 b 176 0 56 50 106 0 l 619 0 b 742 121 692 0 742 50 l 742 497 b 619 618 742 568 692 618 z "},"7":{"ha":639,"x_min":0,"x_max":0,"o":"m 300 694 l 94 78 l 94 0 l 376 0 l 611 722 l 611 972 l 14 972 l 14 728 l 300 728 z "},"8":{"ha":797,"x_min":0,"x_max":0,"o":"m 360 376 l 439 376 l 439 242 l 360 242 z m 360 728 l 439 728 l 439 618 l 360 618 z m 178 0 l 621 0 b 742 121 692 0 742 50 l 742 367 b 618 483 742 438 685 483 l 618 511 b 742 628 685 511 742 557 l 742 851 b 621 972 742 922 692 972 l 178 972 b 56 851 107 972 56 922 l 56 628 b 181 511 56 557 114 511 l 181 483 b 56 367 114 483 56 438 l 56 121 b 178 0 56 50 106 0 z "},"9":{"ha":783,"x_min":0,"x_max":0,"o":"m 344 728 l 424 728 l 424 594 l 344 594 z m 163 351 l 424 351 l 424 242 l 76 242 l 76 0 l 606 0 b 728 121 678 0 728 50 l 728 851 b 606 972 728 922 678 972 l 163 972 b 42 851 92 972 42 922 l 42 474 b 163 351 42 401 92 351 z "},"B":{"ha":826,"x_min":0,"x_max":0,"o":"m 360 376 l 481 376 l 481 243 l 360 243 z m 481 619 l 360 619 l 360 728 l 481 728 z m 663 0 b 785 121 735 0 785 50 l 785 367 b 660 485 785 439 726 485 l 660 511 b 785 628 726 511 785 557 l 785 851 b 663 972 785 922 735 972 l 56 972 l 56 0 z "},"C":{"ha":733,"x_min":0,"x_max":0,"o":"m 178 972 b 56 851 106 972 56 922 l 56 121 b 178 0 56 50 106 0 l 706 0 l 706 243 l 360 243 l 360 728 l 658 728 l 706 851 l 706 972 z "},"D":{"ha":839,"x_min":0,"x_max":0,"o":"m 358 728 l 481 728 l 481 243 l 358 243 z m 663 0 b 783 121 733 0 783 50 l 783 851 b 663 972 783 922 733 972 l 56 972 l 56 0 z "},"E":{"ha":733,"x_min":0,"x_max":0,"o":"m 706 0 l 706 243 l 358 243 l 358 376 l 657 376 l 657 619 l 358 619 l 358 728 l 657 728 l 706 851 l 706 972 l 56 972 l 56 0 z "},"F":{"ha":719,"x_min":0,"x_max":0,"o":"m 360 328 l 658 328 l 658 571 l 360 571 l 360 728 l 658 728 l 706 851 l 706 972 l 56 972 l 56 0 l 360 0 z "},"G":{"ha":840,"x_min":0,"x_max":0,"o":"m 178 972 b 56 851 106 972 56 922 l 56 121 b 178 0 56 50 106 0 l 785 0 l 785 569 l 481 569 l 481 243 l 360 243 l 360 728 l 731 728 l 779 851 l 779 972 z "},"H":{"ha":839,"x_min":0,"x_max":0,"o":"m 358 619 l 358 972 l 56 972 l 56 0 l 358 0 l 358 376 l 481 376 l 481 0 l 783 0 l 783 972 l 481 972 l 481 619 z "},"I":{"ha":414,"x_min":0,"x_max":0,"o":"m 358 0 l 358 972 l 56 972 l 56 0 z "},"J":{"ha":549,"x_min":0,"x_max":0,"o":"m 372 0 b 493 121 443 0 493 50 l 493 972 l 190 972 l 190 243 l 14 243 l 14 0 z "},"K":{"ha":826,"x_min":0,"x_max":0,"o":"m 414 619 l 358 619 l 358 972 l 56 972 l 56 0 l 358 0 l 358 376 l 414 376 l 496 0 l 799 0 l 799 121 l 663 514 l 775 851 l 775 972 l 486 972 z "},"L":{"ha":678,"x_min":0,"x_max":0,"o":"m 56 0 l 664 0 l 664 243 l 358 243 l 358 972 l 56 972 z "},"M":{"ha":1101,"x_min":0,"x_max":0,"o":"m 424 0 l 678 0 l 753 467 l 778 467 l 778 0 l 1074 0 l 1074 121 l 975 972 l 635 972 l 561 589 l 540 589 l 467 972 l 128 972 l 28 121 l 28 0 l 325 0 l 325 467 l 349 467 z "},"N":{"ha":840,"x_min":0,"x_max":0,"o":"m 519 522 l 378 972 l 56 972 l 56 0 l 335 0 l 335 121 l 296 449 l 319 449 l 463 0 l 785 0 l 785 972 l 504 972 l 504 851 l 544 522 z "},"O":{"ha":840,"x_min":0,"x_max":0,"o":"m 481 728 l 481 243 l 360 243 l 360 728 z m 663 0 b 785 121 735 0 785 50 l 785 851 b 663 972 785 922 735 972 l 178 972 b 56 851 106 972 56 922 l 56 121 b 178 0 56 50 106 0 z "},"P":{"ha":826,"x_min":0,"x_max":0,"o":"m 360 728 l 481 728 l 481 546 l 360 546 z m 663 303 b 785 425 735 303 785 354 l 785 851 b 663 972 785 922 735 972 l 56 972 l 56 0 l 360 0 l 360 303 z "},"Q":{"ha":840,"x_min":0,"x_max":0,"o":"m 481 728 l 481 243 l 360 243 l 360 728 z m 663 0 b 785 121 735 0 785 50 l 785 851 b 663 972 785 922 735 972 l 178 972 b 56 851 106 972 56 922 l 56 121 b 178 0 56 50 106 0 l 321 0 l 367 -215 l 597 -215 l 597 -94 l 536 0 z "},"R":{"ha":828,"x_min":0,"x_max":0,"o":"m 481 728 l 481 546 l 360 546 l 360 728 z m 56 972 l 56 0 l 360 0 l 360 303 l 421 303 l 503 0 l 800 0 l 800 121 l 704 360 b 785 469 750 372 785 424 l 785 851 b 664 972 785 922 735 972 z "},"S":{"ha":706,"x_min":0,"x_max":0,"o":"m 110 482 l 374 307 l 374 243 l 28 243 l 28 0 l 557 0 b 678 121 628 0 678 50 l 678 342 b 596 507 678 419 663 463 l 332 683 l 332 728 l 631 728 l 678 853 l 678 972 l 150 972 b 28 851 78 972 28 922 l 28 647 b 110 482 28 569 43 528 z "},"T":{"ha":708,"x_min":0,"x_max":0,"o":"m 196 728 l 196 0 l 500 0 l 500 728 l 646 728 l 694 851 l 694 972 l 14 972 l 14 728 z "},"U":{"ha":840,"x_min":0,"x_max":0,"o":"m 481 972 l 481 243 l 360 243 l 360 972 l 56 972 l 56 121 b 178 0 56 50 106 0 l 785 0 l 785 972 z "},"V":{"ha":793,"x_min":0,"x_max":0,"o":"m 168 0 l 625 0 l 779 893 l 779 972 l 476 972 l 414 243 l 379 243 l 317 972 l 14 972 l 14 893 z "},"W":{"ha":1101,"x_min":0,"x_max":0,"o":"m 424 972 l 349 504 l 325 504 l 325 972 l 28 972 l 28 851 l 128 0 l 467 0 l 540 382 l 561 382 l 635 0 l 975 0 l 1074 851 l 1074 972 l 778 972 l 778 504 l 753 504 l 678 972 z "},"X":{"ha":806,"x_min":0,"x_max":0,"o":"m 415 619 l 390 619 l 326 972 l 38 972 l 38 842 l 150 514 l 14 115 l 14 0 l 318 0 l 390 376 l 415 376 l 488 0 l 792 0 l 792 115 l 656 514 l 768 842 l 768 972 l 479 972 z "},"Y":{"ha":806,"x_min":0,"x_max":0,"o":"m 251 265 l 251 0 l 554 0 l 554 265 l 792 851 l 792 972 l 489 972 l 414 594 l 392 594 l 318 972 l 14 972 l 14 851 z "},"Z":{"ha":743,"x_min":0,"x_max":0,"o":"m 28 0 l 715 0 l 715 243 l 374 243 l 374 276 l 703 722 l 703 972 l 28 972 l 28 851 l 75 728 l 356 728 l 356 694 l 28 249 z "},"А":{"ha":833,"x_min":0,"x_max":0,"o":"m 372 439 l 400 728 l 433 728 l 461 439 z m 164 972 l 28 121 l 28 0 l 331 0 l 350 196 l 483 196 l 501 0 l 806 0 l 806 121 l 669 972 z "},"В":{"ha":826,"x_min":0,"x_max":0,"o":"m 360 376 l 481 376 l 481 243 l 360 243 z m 481 619 l 360 619 l 360 728 l 481 728 z m 663 0 b 785 121 735 0 785 50 l 785 367 b 660 485 785 439 726 485 l 660 511 b 785 628 726 511 785 557 l 785 851 b 663 972 785 922 735 972 l 56 972 l 56 0 z "},"Б":{"ha":825,"x_min":0,"x_max":0,"o":"m 358 243 l 358 376 l 481 376 l 481 243 z m 663 619 l 358 619 l 358 729 l 729 729 l 778 851 l 778 972 l 56 972 l 56 0 l 663 0 b 783 122 733 0 783 51 l 783 499 b 663 619 783 569 733 619 z "},"Г":{"ha":719,"x_min":0,"x_max":0,"o":"m 360 729 l 658 729 l 706 851 l 706 972 l 56 972 l 56 0 l 360 0 z "},"Д":{"ha":931,"x_min":0,"x_max":0,"o":"m 532 243 l 414 243 l 489 729 l 532 729 z m 14 0 l 917 0 l 917 243 l 836 243 l 836 972 l 253 972 l 104 243 l 14 243 z "},"Е":{"ha":733,"x_min":0,"x_max":0,"o":"m 706 0 l 706 243 l 358 243 l 358 376 l 657 376 l 657 619 l 358 619 l 358 728 l 657 728 l 706 851 l 706 972 l 56 972 l 56 0 z "},"Ё":{"ha":733,"x_min":0,"x_max":0,"o":"m 403 1079 l 613 1079 l 651 1178 l 651 1313 l 403 1313 z m 110 1079 l 319 1079 l 358 1178 l 358 1313 l 110 1313 z m 706 0 l 706 243 l 360 243 l 360 376 l 658 376 l 658 619 l 360 619 l 360 729 l 658 729 l 706 851 l 706 972 l 56 972 l 56 0 z "},"Ж":{"ha":1215,"x_min":0,"x_max":0,"o":"m 801 619 l 760 619 l 760 972 l 456 972 l 456 619 l 414 619 l 340 972 l 53 972 l 53 851 l 164 515 l 28 121 l 28 0 l 332 0 l 414 376 l 456 376 l 456 0 l 760 0 l 760 376 l 801 376 l 883 0 l 1188 0 l 1188 121 l 1051 515 l 1164 851 l 1164 972 l 875 972 z "},"З":{"ha":718,"x_min":0,"x_max":0,"o":"m 556 0 b 676 122 626 0 676 51 l 676 368 b 553 485 676 439 619 485 l 553 511 b 676 629 619 511 676 557 l 676 850 b 556 972 676 921 626 972 l 28 972 l 28 851 l 75 729 l 374 729 l 374 619 l 190 619 l 190 376 l 374 376 l 374 243 l 28 243 l 28 0 z "},"И":{"ha":839,"x_min":0,"x_max":0,"o":"m 481 875 l 338 540 l 314 540 l 358 851 l 358 972 l 56 972 l 56 0 l 358 0 l 358 97 l 501 432 l 526 432 l 481 121 l 481 0 l 783 0 l 783 972 l 481 972 z "},"Й":{"ha":840,"x_min":0,"x_max":0,"o":"m 192 1079 l 610 1079 l 649 1178 l 649 1313 l 192 1313 z m 481 875 l 339 540 l 314 540 l 360 851 l 360 972 l 56 972 l 56 0 l 360 0 l 360 97 l 503 432 l 526 432 l 481 121 l 481 0 l 785 0 l 785 972 l 481 972 z "},"К":{"ha":826,"x_min":0,"x_max":0,"o":"m 414 619 l 360 619 l 360 972 l 56 972 l 56 0 l 360 0 l 360 376 l 414 376 l 496 0 l 799 0 l 799 121 l 663 515 l 775 851 l 775 972 l 488 972 z "},"Л":{"ha":835,"x_min":0,"x_max":0,"o":"m 779 0 l 779 972 l 197 972 l 14 121 l 14 0 l 319 0 l 433 729 l 476 729 l 476 0 z "},"М":{"ha":1101,"x_min":0,"x_max":0,"o":"m 424 0 l 678 0 l 753 467 l 778 467 l 778 0 l 1074 0 l 1074 121 l 975 972 l 635 972 l 561 589 l 540 589 l 467 972 l 128 972 l 28 121 l 28 0 l 325 0 l 325 467 l 349 467 z "},"Н":{"ha":839,"x_min":0,"x_max":0,"o":"m 358 619 l 358 972 l 56 972 l 56 0 l 358 0 l 358 376 l 481 376 l 481 0 l 783 0 l 783 972 l 481 972 l 481 619 z "},"О":{"ha":840,"x_min":0,"x_max":0,"o":"m 481 728 l 481 243 l 360 243 l 360 728 z m 663 0 b 785 121 735 0 785 50 l 785 851 b 663 972 785 922 735 972 l 178 972 b 56 851 106 972 56 922 l 56 121 b 178 0 56 50 106 0 z "},"П":{"ha":840,"x_min":0,"x_max":0,"o":"m 360 0 l 360 729 l 481 729 l 481 0 l 785 0 l 785 972 l 56 972 l 56 0 z "},"Р":{"ha":826,"x_min":0,"x_max":0,"o":"m 360 728 l 481 728 l 481 546 l 360 546 z m 663 303 b 785 425 735 303 785 354 l 785 851 b 663 972 785 922 735 972 l 56 972 l 56 0 l 360 0 l 360 303 z "},"С":{"ha":733,"x_min":0,"x_max":0,"o":"m 178 972 b 56 851 106 972 56 922 l 56 121 b 178 0 56 50 106 0 l 706 0 l 706 243 l 360 243 l 360 728 l 658 728 l 706 851 l 706 972 z "},"Т":{"ha":708,"x_min":0,"x_max":0,"o":"m 196 728 l 196 0 l 500 0 l 500 728 l 646 728 l 694 851 l 694 972 l 14 972 l 14 728 z "},"У":{"ha":771,"x_min":0,"x_max":0,"o":"m 494 0 l 757 851 l 757 972 l 475 972 l 417 592 l 383 592 l 306 972 l 14 972 l 14 851 l 265 231 l 226 121 l 226 0 z "},"Ф":{"ha":1213,"x_min":0,"x_max":0,"o":"m 758 347 l 758 642 l 867 642 l 867 347 z m 454 642 l 454 347 l 344 347 l 344 642 z m 454 0 l 758 0 l 758 104 l 1049 104 b 1171 226 1121 104 1171 154 l 1171 763 b 1049 885 1171 835 1121 885 l 758 885 l 758 972 l 454 972 l 454 885 l 164 885 b 42 763 92 885 42 835 l 42 226 b 164 104 42 154 92 104 l 454 104 z "},"Х":{"ha":806,"x_min":0,"x_max":0,"o":"m 415 619 l 390 619 l 326 972 l 38 972 l 38 842 l 150 514 l 14 115 l 14 0 l 318 0 l 390 376 l 415 376 l 488 0 l 792 0 l 792 115 l 656 514 l 768 842 l 768 972 l 479 972 z "},"Ц":{"ha":879,"x_min":0,"x_max":0,"o":"m 360 972 l 56 972 l 56 0 l 865 0 l 865 243 l 785 243 l 785 972 l 481 972 l 481 243 l 360 243 z "},"Ч":{"ha":825,"x_min":0,"x_max":0,"o":"m 163 328 l 467 328 l 467 0 l 769 0 l 769 972 l 467 972 l 467 571 l 344 571 l 344 972 l 42 972 l 42 450 b 163 328 42 379 92 328 z "},"Ш":{"ha":1240,"x_min":0,"x_max":0,"o":"m 56 972 l 56 0 l 1185 0 l 1185 972 l 882 972 l 882 243 l 772 243 l 772 972 l 469 972 l 469 243 l 360 243 l 360 972 z "},"Щ":{"ha":1279,"x_min":0,"x_max":0,"o":"m 1265 0 l 1265 243 l 1185 243 l 1185 972 l 882 972 l 882 243 l 772 243 l 772 972 l 468 972 l 468 243 l 360 243 l 360 972 l 56 972 l 56 0 z "},"Ъ":{"ha":865,"x_min":0,"x_max":0,"o":"m 399 243 l 399 425 l 519 425 l 519 243 z m 701 668 l 399 668 l 399 972 l 14 972 l 14 729 l 94 729 l 94 0 l 701 0 b 824 122 774 0 824 51 l 824 547 b 701 668 824 618 774 668 z "},"Ы":{"ha":1217,"x_min":0,"x_max":0,"o":"m 360 243 l 360 425 l 469 425 l 469 243 z m 857 972 l 857 0 l 1161 0 l 1161 972 z m 651 668 l 360 668 l 360 972 l 56 972 l 56 0 l 651 0 b 772 122 722 0 772 51 l 772 547 b 651 668 772 618 722 668 z "},"Ь":{"ha":826,"x_min":0,"x_max":0,"o":"m 360 243 l 360 425 l 481 425 l 481 243 z m 664 668 l 360 668 l 360 972 l 56 972 l 56 0 l 664 0 b 785 122 735 0 785 51 l 785 547 b 664 668 785 618 735 668 z "},"Э":{"ha":733,"x_min":0,"x_max":0,"o":"m 557 972 l 28 972 l 28 851 l 76 729 l 374 729 l 374 619 l 192 619 l 192 376 l 374 376 l 374 243 l 28 243 l 28 0 l 557 0 b 678 122 628 0 678 51 l 678 850 b 557 972 678 921 628 972 z "},"Ю":{"ha":1240,"x_min":0,"x_max":0,"o":"m 881 729 l 881 243 l 772 243 l 772 729 z m 358 619 l 358 972 l 56 972 l 56 0 l 358 0 l 358 376 l 468 376 l 468 122 b 590 0 468 51 518 0 l 1063 0 b 1185 122 1135 0 1185 51 l 1185 850 b 1063 972 1185 921 1135 972 l 589 972 b 468 850 518 972 468 921 l 468 619 z "},"Я":{"ha":826,"x_min":0,"x_max":0,"o":"m 346 729 l 467 729 l 467 547 l 346 547 z m 771 972 l 164 972 b 42 850 92 972 42 921 l 42 471 b 122 360 42 424 76 372 l 28 121 l 28 0 l 325 0 l 406 304 l 467 304 l 467 0 l 771 0 z "},"-":{"ha":742,"x_min":0,"x_max":0,"o":"m 28 583 l 28 388 l 714 388 l 714 583 z "},"+":{"ha":742,"x_min":0,"x_max":0,"o":"m 28 583 l 28 388 l 272 388 l 272 142 l 468 142 l 468 388 l 714 388 l 714 583 l 468 583 l 468 828 l 272 828 l 272 583 z "},"=":{"ha":797,"x_min":0,"x_max":0,"o":"m 56 414 l 56 217 l 742 217 l 742 414 z m 56 753 l 56 557 l 742 557 l 742 753 z "},"[":{"ha":349,"x_min":0,"x_max":0,"o":"m 251 1043 l 349 1043 l 349 1228 l 56 1228 l 56 -258 l 349 -258 l 349 -74 l 251 -74 z "},"]":{"ha":350,"x_min":0,"x_max":0,"o":"m 97 1043 l 97 -74 l 0 -74 l 0 -258 l 294 -258 l 294 1228 l 0 1228 l 0 1043 z "},"(":{"ha":349,"x_min":0,"x_max":0,"o":"m 349 -74 l 332 -74 b 251 18 268 -74 251 -43 l 251 951 b 332 1043 251 1014 268 1043 l 349 1043 l 349 1228 l 332 1228 b 56 949 135 1228 56 1143 l 56 22 b 332 -258 56 -172 135 -258 l 349 -258 z "},")":{"ha":349,"x_min":0,"x_max":0,"o":"m 0 -74 l 0 -258 l 17 -258 b 293 22 214 -258 293 -172 l 293 949 b 17 1228 293 1143 214 1228 l 0 1228 l 0 1043 l 17 1043 b 97 951 81 1043 97 1014 l 97 18 b 17 -74 97 -43 81 -74 z "},"&":{"ha":825,"x_min":0,"x_max":0,"o":"m 424 376 l 424 243 l 344 243 l 344 376 z m 163 0 l 606 0 b 728 122 678 0 728 50 l 728 376 l 811 376 l 811 619 l 344 619 l 344 729 l 681 729 l 728 851 l 728 972 l 163 972 b 42 850 92 972 42 921 l 42 629 b 165 511 42 557 100 511 l 165 485 b 42 368 100 485 42 439 l 42 122 b 163 0 42 50 92 0 z "},"„":{"ha":740,"x_min":0,"x_max":0,"o":"m 329 43 l 329 243 l 56 243 l 56 0 l 161 0 l 161 -104 l 271 -104 z m 685 43 l 685 243 l 411 243 l 411 0 l 518 0 l 518 -104 l 628 -104 z "},"“":{"ha":740,"x_min":0,"x_max":0,"o":"m 411 929 l 411 728 l 685 728 l 685 972 l 579 972 l 579 1075 l 469 1075 z m 56 928 l 56 728 l 329 728 l 329 972 l 222 972 l 222 1075 l 113 1075 z "},"‘":{"ha":385,"x_min":0,"x_max":0,"o":"m 56 929 l 56 728 l 329 728 l 329 972 l 224 972 l 224 1075 l 114 1075 z "},"’":{"ha":385,"x_min":0,"x_max":0,"o":"m 329 972 l 56 972 l 56 728 l 161 728 l 161 624 l 272 624 l 329 772 z "},"«":{"ha":693,"x_min":0,"x_max":0,"o":"m 638 693 l 638 757 l 475 757 l 326 508 l 326 421 l 475 172 l 638 172 l 638 236 l 507 465 z m 339 693 l 339 757 l 175 757 l 28 508 l 28 421 l 175 172 l 339 172 l 339 236 l 207 465 z "},"»":{"ha":694,"x_min":0,"x_max":0,"o":"m 56 693 l 186 465 l 56 236 l 56 172 l 218 172 l 367 421 l 367 508 l 218 757 l 56 757 z m 356 693 l 486 465 l 356 236 l 356 172 l 518 172 l 667 421 l 667 508 l 518 757 l 356 757 z "},":":{"ha":385,"x_min":0,"x_max":0,"o":"m 56 243 l 56 0 l 329 0 l 329 243 z m 56 972 l 56 728 l 329 728 l 329 972 z "},";":{"ha":385,"x_min":0,"x_max":0,"o":"m 329 43 l 329 243 l 56 243 l 56 0 l 161 0 l 161 -104 l 272 -104 z m 56 972 l 56 728 l 329 728 l 329 972 z "},".":{"ha":385,"x_min":0,"x_max":0,"o":"m 56 243 l 56 0 l 329 0 l 329 243 z "},",":{"ha":385,"x_min":0,"x_max":0,"o":"m 329 43 l 329 243 l 56 243 l 56 0 l 163 0 l 163 -104 l 272 -104 z "},"@":{"ha":988,"x_min":0,"x_max":0,"o":"m 553 519 l 735 519 l 735 453 l 553 453 z m 735 788 l 735 703 l 446 703 b 361 625 383 703 361 690 l 361 347 b 446 268 361 281 383 268 l 932 268 l 932 825 b 811 972 932 950 875 972 l 175 972 b 56 825 113 972 56 950 l 56 146 b 175 0 56 21 113 0 l 932 0 l 932 185 l 253 185 l 253 788 z "},"*":{"ha":626,"x_min":0,"x_max":0,"o":"m 242 800 l 100 847 l 56 713 l 199 665 l 111 544 l 225 461 l 314 582 l 401 461 l 515 544 l 428 665 l 571 713 l 526 847 l 385 800 l 385 950 l 242 950 z "},"—":{"ha":1103,"x_min":0,"x_max":0,"o":"m 28 563 l 28 367 l 1075 367 l 1075 563 z "},"–":{"ha":531,"x_min":0,"x_max":0,"o":"m 28 563 l 28 367 l 503 367 l 503 563 z "},"!":{"ha":417,"x_min":0,"x_max":0,"o":"m 72 243 l 72 0 l 346 0 l 346 243 z m 88 344 l 329 344 l 375 851 l 375 972 l 42 972 l 42 851 z "},"?":{"ha":728,"x_min":0,"x_max":0,"o":"m 618 494 b 700 660 688 535 700 582 l 700 851 b 578 972 700 922 650 972 l 14 972 l 14 851 l 61 728 l 396 728 l 396 676 l 276 590 b 194 425 211 543 194 504 l 194 344 l 468 344 l 468 410 z m 194 243 l 194 0 l 468 0 l 468 243 z "},"#":{"ha":1028,"x_min":0,"x_max":0,"o":"m 418 582 l 610 582 l 610 389 l 418 389 z m 221 0 l 418 0 l 418 193 l 610 193 l 610 0 l 807 0 l 807 193 l 1000 193 l 1000 389 l 807 389 l 807 582 l 1000 582 l 1000 778 l 807 778 l 807 972 l 610 972 l 610 778 l 418 778 l 418 972 l 221 972 l 221 778 l 28 778 l 28 582 l 221 582 l 221 389 l 28 389 l 28 193 l 221 193 z "},"<":{"ha":564,"x_min":0,"x_max":0,"o":"m 508 696 l 508 760 l 310 760 l 28 508 l 28 421 l 310 169 l 508 169 l 508 235 l 244 465 z "},">":{"ha":565,"x_min":0,"x_max":0,"o":"m 56 696 l 321 465 l 56 235 l 56 169 l 256 169 l 538 421 l 538 508 l 256 760 l 56 760 z "},"/":{"ha":729,"x_min":0,"x_max":0,"o":"m 729 919 l 729 972 l 535 972 l 0 53 l 0 0 l 196 0 z "},"\\":{"ha":729,"x_min":0,"x_max":0,"o":"m 0 919 l 535 0 l 729 0 l 729 53 l 196 972 l 0 972 z "},"_":{"ha":685,"x_min":0,"x_max":0,"o":"m 0 -82 l 0 -278 l 685 -278 l 685 -82 z "},"€":{"ha":789,"x_min":0,"x_max":0,"o":"m 232 972 b 111 850 161 972 111 921 l 111 636 l 25 636 l 0 575 l 0 513 l 111 513 l 111 458 l 25 458 l 0 396 l 0 335 l 111 335 l 111 121 b 232 0 111 50 161 0 l 761 0 l 761 243 l 414 243 l 414 335 l 560 335 l 583 396 l 583 458 l 414 458 l 414 513 l 629 513 l 653 575 l 653 636 l 414 636 l 414 728 l 713 728 l 761 850 l 761 972 z "},"$":{"ha":706,"x_min":0,"x_max":0,"o":"m 110 483 l 374 307 l 374 243 l 28 243 l 28 0 l 258 0 l 258 -103 l 447 -103 l 447 0 l 556 0 b 678 121 628 0 678 50 l 678 342 b 596 507 678 419 663 463 l 332 683 l 332 728 l 629 728 l 678 851 l 678 972 l 447 972 l 447 1076 l 258 1076 l 258 972 l 149 972 b 28 850 78 972 28 921 l 28 647 b 110 483 28 569 43 528 z "},"”":{"ha":740,"x_min":0,"x_max":0,"o":"m 329 771 l 329 972 l 56 972 l 56 728 l 161 728 l 161 625 l 271 625 z m 685 772 l 685 972 l 411 972 l 411 728 l 518 728 l 518 625 l 628 625 z "},"Ќ":{"ha":964,"x_min":0,"x_max":0,"o":"m 163 0 l 475 0 l 475 243 l 344 243 l 344 376 l 543 376 l 543 122 b 665 0 543 50 593 0 l 936 0 l 936 243 l 847 243 l 847 376 l 936 376 l 936 619 l 344 619 l 344 729 l 674 729 l 721 851 l 721 972 l 163 972 b 42 851 92 972 42 922 l 42 629 b 165 511 42 557 100 511 l 165 485 b 42 368 100 485 42 439 l 42 122 b 163 0 42 50 92 0 z "}," ":{"ha":681,"x_min":0,"x_max":0,"o":""},"a":{"ha":833,"x_min":0,"x_max":0,"o":"m 372 439 l 400 728 l 433 728 l 461 439 z m 164 972 l 28 121 l 28 0 l 331 0 l 350 196 l 483 196 l 501 0 l 806 0 l 806 121 l 669 972 z "},"b":{"ha":826,"x_min":0,"x_max":0,"o":"m 360 376 l 481 376 l 481 243 l 360 243 z m 481 619 l 360 619 l 360 728 l 481 728 z m 663 0 b 785 121 735 0 785 50 l 785 367 b 660 485 785 439 726 485 l 660 511 b 785 628 726 511 785 557 l 785 851 b 663 972 785 922 735 972 l 56 972 l 56 0 z "},"c":{"ha":733,"x_min":0,"x_max":0,"o":"m 178 972 b 56 851 106 972 56 922 l 56 121 b 178 0 56 50 106 0 l 706 0 l 706 243 l 360 243 l 360 728 l 658 728 l 706 851 l 706 972 z "},"d":{"ha":839,"x_min":0,"x_max":0,"o":"m 358 728 l 481 728 l 481 243 l 358 243 z m 663 0 b 783 121 733 0 783 50 l 783 851 b 663 972 783 922 733 972 l 56 972 l 56 0 z "},"e":{"ha":733,"x_min":0,"x_max":0,"o":"m 706 0 l 706 243 l 358 243 l 358 376 l 657 376 l 657 619 l 358 619 l 358 728 l 657 728 l 706 851 l 706 972 l 56 972 l 56 0 z "},"f":{"ha":719,"x_min":0,"x_max":0,"o":"m 360 328 l 658 328 l 658 571 l 360 571 l 360 728 l 658 728 l 706 851 l 706 972 l 56 972 l 56 0 l 360 0 z "},"g":{"ha":840,"x_min":0,"x_max":0,"o":"m 178 972 b 56 851 106 972 56 922 l 56 121 b 178 0 56 50 106 0 l 785 0 l 785 569 l 481 569 l 481 243 l 360 243 l 360 728 l 731 728 l 779 851 l 779 972 z "},"h":{"ha":839,"x_min":0,"x_max":0,"o":"m 358 619 l 358 972 l 56 972 l 56 0 l 358 0 l 358 376 l 481 376 l 481 0 l 783 0 l 783 972 l 481 972 l 481 619 z "},"i":{"ha":414,"x_min":0,"x_max":0,"o":"m 358 0 l 358 972 l 56 972 l 56 0 z "},"j":{"ha":549,"x_min":0,"x_max":0,"o":"m 372 0 b 493 121 443 0 493 50 l 493 972 l 190 972 l 190 243 l 14 243 l 14 0 z "},"k":{"ha":826,"x_min":0,"x_max":0,"o":"m 414 619 l 358 619 l 358 972 l 56 972 l 56 0 l 358 0 l 358 376 l 414 376 l 496 0 l 799 0 l 799 121 l 663 514 l 775 851 l 775 972 l 486 972 z "},"l":{"ha":678,"x_min":0,"x_max":0,"o":"m 56 0 l 664 0 l 664 243 l 358 243 l 358 972 l 56 972 z "},"m":{"ha":1101,"x_min":0,"x_max":0,"o":"m 424 0 l 678 0 l 753 467 l 778 467 l 778 0 l 1074 0 l 1074 121 l 975 972 l 635 972 l 561 589 l 540 589 l 467 972 l 128 972 l 28 121 l 28 0 l 325 0 l 325 467 l 349 467 z "},"n":{"ha":840,"x_min":0,"x_max":0,"o":"m 519 522 l 378 972 l 56 972 l 56 0 l 335 0 l 335 121 l 296 449 l 319 449 l 463 0 l 785 0 l 785 972 l 504 972 l 504 851 l 544 522 z "},"o":{"ha":840,"x_min":0,"x_max":0,"o":"m 481 728 l 481 243 l 360 243 l 360 728 z m 663 0 b 785 121 735 0 785 50 l 785 851 b 663 972 785 922 735 972 l 178 972 b 56 851 106 972 56 922 l 56 121 b 178 0 56 50 106 0 z "},"p":{"ha":826,"x_min":0,"x_max":0,"o":"m 360 728 l 481 728 l 481 546 l 360 546 z m 663 303 b 785 425 735 303 785 354 l 785 851 b 663 972 785 922 735 972 l 56 972 l 56 0 l 360 0 l 360 303 z "},"q":{"ha":840,"x_min":0,"x_max":0,"o":"m 481 728 l 481 243 l 360 243 l 360 728 z m 663 0 b 785 121 735 0 785 50 l 785 851 b 663 972 785 922 735 972 l 178 972 b 56 851 106 972 56 922 l 56 121 b 178 0 56 50 106 0 l 321 0 l 367 -215 l 597 -215 l 597 -94 l 536 0 z "},"r":{"ha":828,"x_min":0,"x_max":0,"o":"m 481 728 l 481 546 l 360 546 l 360 728 z m 56 972 l 56 0 l 360 0 l 360 303 l 421 303 l 503 0 l 800 0 l 800 121 l 704 360 b 785 469 750 372 785 424 l 785 851 b 664 972 785 922 735 972 z "},"s":{"ha":706,"x_min":0,"x_max":0,"o":"m 110 482 l 374 307 l 374 243 l 28 243 l 28 0 l 557 0 b 678 121 628 0 678 50 l 678 342 b 596 507 678 419 663 463 l 332 683 l 332 728 l 631 728 l 678 853 l 678 972 l 150 972 b 28 851 78 972 28 922 l 28 647 b 110 482 28 569 43 528 z "},"t":{"ha":708,"x_min":0,"x_max":0,"o":"m 196 728 l 196 0 l 500 0 l 500 728 l 646 728 l 694 851 l 694 972 l 14 972 l 14 728 z "},"u":{"ha":840,"x_min":0,"x_max":0,"o":"m 481 972 l 481 243 l 360 243 l 360 972 l 56 972 l 56 121 b 178 0 56 50 106 0 l 785 0 l 785 972 z "},"v":{"ha":793,"x_min":0,"x_max":0,"o":"m 168 0 l 625 0 l 779 893 l 779 972 l 476 972 l 414 243 l 379 243 l 317 972 l 14 972 l 14 893 z "},"w":{"ha":1101,"x_min":0,"x_max":0,"o":"m 424 972 l 349 504 l 325 504 l 325 972 l 28 972 l 28 851 l 128 0 l 467 0 l 540 382 l 561 382 l 635 0 l 975 0 l 1074 851 l 1074 972 l 778 972 l 778 504 l 753 504 l 678 972 z "},"x":{"ha":806,"x_min":0,"x_max":0,"o":"m 415 619 l 390 619 l 326 972 l 38 972 l 38 842 l 150 514 l 14 115 l 14 0 l 318 0 l 390 376 l 415 376 l 488 0 l 792 0 l 792 115 l 656 514 l 768 842 l 768 972 l 479 972 z "},"y":{"ha":806,"x_min":0,"x_max":0,"o":"m 251 265 l 251 0 l 554 0 l 554 265 l 792 851 l 792 972 l 489 972 l 414 594 l 392 594 l 318 972 l 14 972 l 14 851 z "},"z":{"ha":743,"x_min":0,"x_max":0,"o":"m 28 0 l 715 0 l 715 243 l 374 243 l 374 276 l 703 722 l 703 972 l 28 972 l 28 851 l 75 728 l 356 728 l 356 694 l 28 249 z "},"а":{"ha":833,"x_min":0,"x_max":0,"o":"m 372 439 l 400 728 l 433 728 l 461 439 z m 164 972 l 28 121 l 28 0 l 331 0 l 350 196 l 483 196 l 501 0 l 806 0 l 806 121 l 669 972 z "},"б":{"ha":825,"x_min":0,"x_max":0,"o":"m 358 243 l 358 376 l 481 376 l 481 243 z m 663 619 l 358 619 l 358 729 l 729 729 l 778 851 l 778 972 l 56 972 l 56 0 l 663 0 b 783 122 733 0 783 51 l 783 499 b 663 619 783 569 733 619 z "},"в":{"ha":826,"x_min":0,"x_max":0,"o":"m 360 376 l 481 376 l 481 243 l 360 243 z m 481 619 l 360 619 l 360 728 l 481 728 z m 663 0 b 785 121 735 0 785 50 l 785 367 b 660 485 785 439 726 485 l 660 511 b 785 628 726 511 785 557 l 785 851 b 663 972 785 922 735 972 l 56 972 l 56 0 z "},"г":{"ha":719,"x_min":0,"x_max":0,"o":"m 360 729 l 658 729 l 706 851 l 706 972 l 56 972 l 56 0 l 360 0 z "},"д":{"ha":931,"x_min":0,"x_max":0,"o":"m 532 243 l 414 243 l 489 729 l 532 729 z m 14 0 l 917 0 l 917 243 l 836 243 l 836 972 l 253 972 l 104 243 l 14 243 z "},"е":{"ha":733,"x_min":0,"x_max":0,"o":"m 706 0 l 706 243 l 358 243 l 358 376 l 657 376 l 657 619 l 358 619 l 358 728 l 657 728 l 706 851 l 706 972 l 56 972 l 56 0 z "},"ж":{"ha":1215,"x_min":0,"x_max":0,"o":"m 801 619 l 760 619 l 760 972 l 456 972 l 456 619 l 414 619 l 340 972 l 53 972 l 53 851 l 164 515 l 28 121 l 28 0 l 332 0 l 414 376 l 456 376 l 456 0 l 760 0 l 760 376 l 801 376 l 883 0 l 1188 0 l 1188 121 l 1051 515 l 1164 851 l 1164 972 l 875 972 z "},"з":{"ha":718,"x_min":0,"x_max":0,"o":"m 556 0 b 676 122 626 0 676 51 l 676 368 b 553 485 676 439 619 485 l 553 511 b 676 629 619 511 676 557 l 676 850 b 556 972 676 921 626 972 l 28 972 l 28 851 l 75 729 l 374 729 l 374 619 l 190 619 l 190 376 l 374 376 l 374 243 l 28 243 l 28 0 z "},"и":{"ha":839,"x_min":0,"x_max":0,"o":"m 481 875 l 338 540 l 314 540 l 358 851 l 358 972 l 56 972 l 56 0 l 358 0 l 358 97 l 501 432 l 526 432 l 481 121 l 481 0 l 783 0 l 783 972 l 481 972 z "},"й":{"ha":840,"x_min":0,"x_max":0,"o":"m 192 1079 l 610 1079 l 649 1178 l 649 1313 l 192 1313 z m 481 875 l 339 540 l 314 540 l 360 851 l 360 972 l 56 972 l 56 0 l 360 0 l 360 97 l 503 432 l 526 432 l 481 121 l 481 0 l 785 0 l 785 972 l 481 972 z "},"к":{"ha":826,"x_min":0,"x_max":0,"o":"m 414 619 l 360 619 l 360 972 l 56 972 l 56 0 l 360 0 l 360 376 l 414 376 l 496 0 l 799 0 l 799 121 l 663 515 l 775 851 l 775 972 l 488 972 z "},"л":{"ha":835,"x_min":0,"x_max":0,"o":"m 779 0 l 779 972 l 197 972 l 14 121 l 14 0 l 319 0 l 433 729 l 476 729 l 476 0 z "},"м":{"ha":1101,"x_min":0,"x_max":0,"o":"m 424 0 l 678 0 l 753 467 l 778 467 l 778 0 l 1074 0 l 1074 121 l 975 972 l 635 972 l 561 589 l 540 589 l 467 972 l 128 972 l 28 121 l 28 0 l 325 0 l 325 467 l 349 467 z "},"н":{"ha":839,"x_min":0,"x_max":0,"o":"m 358 619 l 358 972 l 56 972 l 56 0 l 358 0 l 358 376 l 481 376 l 481 0 l 783 0 l 783 972 l 481 972 l 481 619 z "},"о":{"ha":840,"x_min":0,"x_max":0,"o":"m 481 728 l 481 243 l 360 243 l 360 728 z m 663 0 b 785 121 735 0 785 50 l 785 851 b 663 972 785 922 735 972 l 178 972 b 56 851 106 972 56 922 l 56 121 b 178 0 56 50 106 0 z "},"п":{"ha":840,"x_min":0,"x_max":0,"o":"m 360 0 l 360 729 l 481 729 l 481 0 l 785 0 l 785 972 l 56 972 l 56 0 z "},"р":{"ha":826,"x_min":0,"x_max":0,"o":"m 360 728 l 481 728 l 481 546 l 360 546 z m 663 303 b 785 425 735 303 785 354 l 785 851 b 663 972 785 922 735 972 l 56 972 l 56 0 l 360 0 l 360 303 z "},"с":{"ha":733,"x_min":0,"x_max":0,"o":"m 178 972 b 56 851 106 972 56 922 l 56 121 b 178 0 56 50 106 0 l 706 0 l 706 243 l 360 243 l 360 728 l 658 728 l 706 851 l 706 972 z "},"т":{"ha":708,"x_min":0,"x_max":0,"o":"m 196 728 l 196 0 l 500 0 l 500 728 l 646 728 l 694 851 l 694 972 l 14 972 l 14 728 z "},"у":{"ha":771,"x_min":0,"x_max":0,"o":"m 494 0 l 757 851 l 757 972 l 475 972 l 417 592 l 383 592 l 306 972 l 14 972 l 14 851 l 265 231 l 226 121 l 226 0 z "},"ф":{"ha":1213,"x_min":0,"x_max":0,"o":"m 758 347 l 758 642 l 867 642 l 867 347 z m 454 642 l 454 347 l 344 347 l 344 642 z m 454 0 l 758 0 l 758 104 l 1049 104 b 1171 226 1121 104 1171 154 l 1171 763 b 1049 885 1171 835 1121 885 l 758 885 l 758 972 l 454 972 l 454 885 l 164 885 b 42 763 92 885 42 835 l 42 226 b 164 104 42 154 92 104 l 454 104 z "},"х":{"ha":806,"x_min":0,"x_max":0,"o":"m 415 619 l 390 619 l 326 972 l 38 972 l 38 842 l 150 514 l 14 115 l 14 0 l 318 0 l 390 376 l 415 376 l 488 0 l 792 0 l 792 115 l 656 514 l 768 842 l 768 972 l 479 972 z "},"ц":{"ha":879,"x_min":0,"x_max":0,"o":"m 360 972 l 56 972 l 56 0 l 865 0 l 865 243 l 785 243 l 785 972 l 481 972 l 481 243 l 360 243 z "},"ч":{"ha":825,"x_min":0,"x_max":0,"o":"m 163 328 l 467 328 l 467 0 l 769 0 l 769 972 l 467 972 l 467 571 l 344 571 l 344 972 l 42 972 l 42 450 b 163 328 42 379 92 328 z "},"ш":{"ha":1240,"x_min":0,"x_max":0,"o":"m 56 972 l 56 0 l 1185 0 l 1185 972 l 882 972 l 882 243 l 772 243 l 772 972 l 469 972 l 469 243 l 360 243 l 360 972 z "},"щ":{"ha":1279,"x_min":0,"x_max":0,"o":"m 1265 0 l 1265 243 l 1185 243 l 1185 972 l 882 972 l 882 243 l 772 243 l 772 972 l 468 972 l 468 243 l 360 243 l 360 972 l 56 972 l 56 0 z "},"ъ":{"ha":865,"x_min":0,"x_max":0,"o":"m 399 243 l 399 425 l 519 425 l 519 243 z m 701 668 l 399 668 l 399 972 l 14 972 l 14 729 l 94 729 l 94 0 l 701 0 b 824 122 774 0 824 51 l 824 547 b 701 668 824 618 774 668 z "},"ы":{"ha":1217,"x_min":0,"x_max":0,"o":"m 360 243 l 360 425 l 469 425 l 469 243 z m 857 972 l 857 0 l 1161 0 l 1161 972 z m 651 668 l 360 668 l 360 972 l 56 972 l 56 0 l 651 0 b 772 122 722 0 772 51 l 772 547 b 651 668 772 618 722 668 z "},"ь":{"ha":826,"x_min":0,"x_max":0,"o":"m 360 243 l 360 425 l 481 425 l 481 243 z m 664 668 l 360 668 l 360 972 l 56 972 l 56 0 l 664 0 b 785 122 735 0 785 51 l 785 547 b 664 668 785 618 735 668 z "},"э":{"ha":733,"x_min":0,"x_max":0,"o":"m 557 972 l 28 972 l 28 851 l 76 729 l 374 729 l 374 619 l 192 619 l 192 376 l 374 376 l 374 243 l 28 243 l 28 0 l 557 0 b 678 122 628 0 678 51 l 678 850 b 557 972 678 921 628 972 z "},"ю":{"ha":1240,"x_min":0,"x_max":0,"o":"m 881 729 l 881 243 l 772 243 l 772 729 z m 358 619 l 358 972 l 56 972 l 56 0 l 358 0 l 358 376 l 468 376 l 468 122 b 590 0 468 51 518 0 l 1063 0 b 1185 122 1135 0 1185 51 l 1185 850 b 1063 972 1185 921 1135 972 l 589 972 b 468 850 518 972 468 921 l 468 619 z "},"я":{"ha":826,"x_min":0,"x_max":0,"o":"m 346 729 l 467 729 l 467 547 l 346 547 z m 771 972 l 164 972 b 42 850 92 972 42 921 l 42 471 b 122 360 42 424 76 372 l 28 121 l 28 0 l 325 0 l 406 304 l 467 304 l 467 0 l 771 0 z "},"ё":{"ha":733,"x_min":0,"x_max":0,"o":"m 403 1079 l 613 1079 l 651 1178 l 651 1313 l 403 1313 z m 110 1079 l 319 1079 l 358 1178 l 358 1313 l 110 1313 z m 706 0 l 706 243 l 360 243 l 360 376 l 658 376 l 658 619 l 360 619 l 360 729 l 658 729 l 706 851 l 706 972 l 56 972 l 56 0 z "},"A":{"ha":833,"x_min":0,"x_max":0,"o":"m 372 439 l 400 728 l 433 728 l 461 439 z m 164 972 l 28 121 l 28 0 l 331 0 l 350 196 l 483 196 l 501 0 l 806 0 l 806 121 l 669 972 z "}}}
